<?xml version="1.0" standalone="no"?>
<!DOCTYPE svg PUBLIC "-//W3C//DTD SVG 20010904//EN"
 "http://www.w3.org/TR/2001/REC-SVG-20010904/DTD/svg10.dtd">
<svg version="1.0" xmlns="http://www.w3.org/2000/svg"
 width="1398.10pt" height="1459.70pt" viewBox="229.70 419.90 1398.10 1459.70"
 preserveAspectRatio="xMidYMid meet">
<metadata>
Created by potrace 1.16, written by Peter Selinger 2001-2019
</metadata>
<g transform="translate(0.000000,2208.000000) scale(0.100000,-0.100000)"
fill="#4A148C" stroke="none">
<path d="M9405 17769 c-887 -40 -1794 -225 -2575 -527 -847 -328 -1604 -824
-2299 -1507 -980 -963 -1616 -2111 -1937 -3498 -137 -592 -196 -1095 -197
-1677 0 -615 66 -1133 224 -1765 89 -353 151 -551 267 -850 30 -77 64 -167 77
-200 76 -200 267 -590 402 -820 94 -161 317 -505 405 -624 220 -298 406 -510
718 -821 204 -203 396 -370 681 -592 217 -168 602 -427 760 -511 35 -18 107
-58 159 -88 313 -179 893 -434 1195 -524 50 -15 115 -35 145 -45 207 -70 630
-170 925 -220 492 -83 968 -116 1532 -107 485 8 728 29 1128 97 504 86 1106
256 1465 413 25 11 73 30 107 43 35 13 71 28 80 33 10 5 52 23 93 41 41 18 91
39 110 47 157 70 577 294 743 397 277 172 538 353 790 548 243 189 733 664
816 792 102 158 176 337 207 506 17 88 18 192 18 1430 0 1188 -2 1353 -17
1501 -9 91 -21 190 -27 219 -31 163 0 212 156 251 187 47 342 169 428 337 28
54 56 183 56 257 0 82 -18 166 -62 289 -35 99 -35 95 24 225 139 306 176 732
93 1089 -83 360 -218 606 -466 849 -194 189 -425 330 -679 412 -337 110 -770
105 -1129 -13 -159 -52 -147 -55 -204 44 -138 236 -247 383 -394 533 -176 179
-344 303 -540 398 -279 135 -615 188 -918 144 -118 -17 -297 -63 -392 -101
-81 -32 -250 -116 -307 -152 -60 -38 -256 -152 -262 -152 -2 0 -4 7 -4 15 0 9
-16 47 -35 85 -33 65 -35 75 -35 168 0 67 -7 123 -21 178 -57 220 -158 325
-376 390 -85 25 -96 32 -162 95 -81 78 -175 128 -288 153 -40 9 -98 25 -128
37 -69 26 -100 68 -150 205 -20 55 -45 122 -56 149 -98 252 -466 501 -927 625
-45 12 -84 26 -87 30 -16 26 565 102 885 115 80 3 184 8 231 11 257 15 903
-55 1252 -137 694 -163 1219 -387 1767 -756 312 -209 685 -532 910 -788 134
-152 263 -270 345 -316 38 -21 120 -55 180 -75 195 -64 384 -58 574 17 209 84
406 282 477 481 59 166 57 413 -4 588 -63 181 -160 308 -477 625 -322 323
-506 476 -960 801 -424 302 -1062 628 -1565 798 -438 148 -985 277 -1396 330
-355 46 -459 56 -739 71 -301 16 -336 16 -610 4z m-1450 -1473 c74 -38 219
-180 257 -251 14 -28 28 -70 29 -95 l4 -44 -95 -13 c-52 -8 -149 -25 -215 -39
-171 -36 -304 -58 -310 -52 -3 3 -8 41 -12 86 -4 62 -2 93 11 134 25 76 100
200 161 264 60 64 67 64 170 10z m531 -637 c255 -45 502 -163 641 -305 57 -58
123 -154 123 -179 0 -6 -37 -16 -82 -24 -46 -7 -130 -30 -187 -52 -119 -44
-121 -45 -162 -23 -36 18 -226 158 -354 259 -99 79 -298 216 -357 246 -64 33
-71 29 -162 -93 -112 -152 -344 -496 -391 -583 -61 -112 -45 -105 -219 -99
-143 5 -157 4 -269 -24 -88 -22 -120 -26 -123 -17 -9 23 26 160 57 223 85 172
320 389 554 509 236 121 705 203 931 162z m-1595 -266 c-132 -150 -229 -321
-272 -478 -28 -102 -30 -240 -5 -343 25 -101 17 -113 -102 -141 -187 -42 -313
-159 -372 -344 l-22 -67 -71 -34 c-91 -43 -132 -74 -174 -133 -98 -139 -135
-322 -99 -498 29 -141 30 -239 2 -368 -13 -66 -27 -121 -30 -124 -3 -3 -27 3
-53 15 -86 36 -333 112 -432 131 -127 26 -288 41 -433 41 -83 0 -118 3 -118
12 0 16 200 392 268 503 64 105 159 249 211 320 21 28 70 95 111 150 185 250
581 676 788 848 68 56 147 121 175 145 119 97 398 282 542 358 66 35 124 64
128 64 5 0 -15 -26 -42 -57z m1223 -72 c3 -4 52 -41 108 -81 57 -40 132 -97
168 -126 238 -194 314 -261 388 -339 l83 -88 27 25 c68 63 245 188 279 197 21
6 56 11 79 11 80 0 227 -98 295 -196 34 -50 79 -163 79 -199 0 -14 3 -25 6
-25 3 0 25 16 49 36 54 44 131 74 189 74 91 0 146 -83 166 -248 8 -65 9 -107
3 -113 -6 -6 -69 2 -169 22 -122 24 -198 33 -329 38 l-170 6 -5 140 c-5 152
-13 175 -62 196 -66 27 -155 -8 -211 -84 l-20 -26 29 -36 c45 -56 64 -97 64
-135 l0 -36 -112 -37 c-62 -20 -160 -50 -218 -67 -58 -17 -115 -38 -127 -46
-13 -8 -23 -13 -23 -12 0 2 -2 32 -5 68 -8 135 -50 244 -139 357 -90 114 -188
190 -296 228 -35 12 -40 12 -80 -15 -49 -32 -192 -232 -229 -318 -33 -80 -46
-203 -32 -313 6 -50 13 -95 14 -99 1 -5 -115 -10 -258 -12 l-260 -3 -3 28 c-2
16 4 39 12 52 36 55 -1 177 -57 190 -94 22 -165 0 -193 -59 -16 -32 -16 -41 0
-133 9 -54 16 -117 16 -139 l0 -40 -67 -21 c-167 -51 -405 -161 -537 -247 -65
-42 -71 -44 -88 -30 -28 26 -38 72 -40 184 -1 90 1 111 20 146 46 89 120 144
193 144 35 0 131 -40 143 -59 4 -6 16 -11 26 -11 14 0 21 10 26 38 24 136 38
183 77 251 48 85 125 159 207 199 47 23 67 27 140 26 76 0 96 -5 189 -42 116
-47 191 -56 191 -24 0 66 220 485 372 710 67 98 81 112 92 93z m158 -742 c35
-16 105 -106 141 -179 60 -121 46 -297 -27 -345 -83 -55 -205 -13 -259 89 -18
33 -22 57 -21 126 0 71 6 98 32 165 36 91 76 155 97 155 8 0 24 -5 37 -11z
m2061 -252 c39 -37 64 -106 74 -203 9 -94 -5 -94 -133 2 -79 59 -84 67 -84
127 0 102 74 140 143 74z m-695 -188 c155 -17 299 -56 497 -136 250 -102 335
-165 335 -251 0 -75 -4 -77 -84 -32 -83 45 -246 112 -357 145 -115 35 -251 56
-391 62 -262 11 -621 -60 -833 -164 -76 -38 -81 -41 -230 -138 -54 -36 -110
-65 -123 -65 -12 0 -80 13 -150 29 -322 75 -460 89 -662 71 -74 -6 -157 -18
-185 -25 -27 -7 -72 -16 -99 -20 -27 -4 -124 -31 -215 -61 -338 -110 -673
-316 -928 -571 -57 -57 -97 -82 -110 -69 -14 13 42 136 101 219 92 131 193
223 387 355 241 161 501 279 764 345 222 56 644 52 877 -8 31 -9 83 -18 115
-21 56 -6 62 -4 158 46 194 102 271 139 365 174 221 82 328 107 505 116 77 4
146 8 153 8 7 1 56 -3 110 -9z m2627 -203 c263 -65 517 -200 682 -364 144
-142 262 -306 374 -520 l54 -103 -35 -27 c-75 -58 -279 -254 -333 -319 -151
-185 -278 -433 -342 -665 -41 -153 -56 -252 -62 -427 l-6 -163 -88 -101 c-134
-153 -179 -255 -179 -402 0 -180 40 -270 188 -429 l103 -111 -5 -43 c-7 -55
-58 -183 -98 -245 -76 -118 -278 -230 -443 -244 -84 -7 -288 21 -305 42 -7 9
-3 42 16 111 115 429 95 651 -106 1209 -77 212 -94 291 -125 562 -14 125 -30
246 -35 268 -5 22 -16 78 -25 125 -30 153 -74 316 -129 479 -30 87 -57 164
-60 170 -10 15 58 115 119 177 139 141 270 235 420 302 145 65 227 87 325 86
222 -3 573 -110 713 -217 43 -34 97 -49 97 -28 0 19 -97 124 -175 190 -141
119 -308 214 -440 251 -230 64 -506 44 -694 -50 -183 -91 -306 -182 -423 -313
-40 -45 -79 -89 -87 -97 -12 -12 -19 -9 -50 30 -20 25 -61 72 -91 105 -118
128 -180 204 -180 220 0 38 233 250 374 340 150 96 381 187 559 221 114 22
366 12 492 -20z m-6028 -278 c39 -41 103 -146 103 -169 0 -19 -97 -100 -172
-143 -47 -27 -47 -27 -58 -6 -16 29 -30 174 -23 228 15 117 84 158 150 90z
m3463 7 c260 -28 592 -176 822 -367 200 -166 381 -396 502 -636 88 -175 187
-500 226 -745 11 -67 28 -210 40 -317 21 -207 60 -396 106 -520 76 -205 147
-435 170 -548 22 -110 25 -141 19 -231 -25 -383 -277 -838 -595 -1072 -139
-102 -335 -219 -368 -219 -28 0 -75 157 -142 485 -89 426 -119 522 -180 567
-16 12 -33 16 -44 12 -16 -6 -17 -18 -12 -133 3 -69 8 -218 11 -331 3 -113 8
-234 11 -270 7 -76 50 -330 65 -380 12 -41 60 -161 69 -175 4 -5 27 -46 50
-90 65 -121 96 -162 190 -255 159 -157 340 -235 540 -233 268 3 490 190 490
412 0 90 -78 161 -177 161 -62 0 -112 27 -136 73 -79 153 206 373 423 328 74
-15 180 -76 244 -139 64 -63 129 -174 170 -290 30 -85 30 -91 30 -272 0 -169
-2 -193 -27 -285 -35 -129 -145 -354 -227 -465 -193 -261 -428 -444 -738 -575
-182 -76 -431 -131 -647 -142 -401 -19 -900 123 -1292 368 -240 151 -495 394
-664 634 -117 166 -254 448 -327 675 -38 115 -142 464 -172 575 -26 96 -43
125 -74 125 -16 0 -26 -8 -31 -22 -4 -13 -10 -116 -14 -230 -3 -113 -8 -209
-11 -212 -3 -3 -46 9 -95 26 -149 51 -256 33 -353 -61 -75 -73 -107 -161 -120
-331 l-7 -95 -38 -3 c-51 -4 -262 58 -405 119 -207 89 -365 195 -536 359 -116
112 -166 180 -241 324 -105 204 -151 417 -174 816 -16 268 -34 391 -105 735
-77 371 -67 693 33 1080 98 375 265 687 490 918 155 159 362 303 561 392 58
26 132 59 165 75 75 34 251 86 370 107 120 21 384 21 529 -2 60 -9 161 -29
225 -46 181 -45 186 -44 421 86 202 113 466 208 650 234 126 19 198 20 330 6z
m4955 -719 c140 -25 260 -63 370 -116 138 -68 174 -90 284 -180 183 -147 308
-305 407 -515 63 -133 96 -235 125 -386 19 -99 21 -136 16 -279 -3 -91 -10
-190 -17 -220 -27 -127 -75 -272 -123 -375 -45 -96 -52 -120 -55 -185 -4 -72
-2 -78 37 -152 103 -194 69 -404 -81 -502 -73 -48 -156 -70 -233 -63 -104 10
-167 40 -255 123 -44 41 -85 74 -93 74 -15 0 -55 -28 -138 -99 -92 -78 -175
-115 -271 -119 -69 -4 -84 -1 -140 25 -77 36 -161 112 -225 201 -86 122 -103
128 -204 74 -114 -61 -167 -75 -288 -75 -94 -1 -113 2 -162 25 -102 47 -230
184 -260 278 -6 19 -19 43 -28 53 -32 37 -47 38 -128 12 -147 -49 -291 -43
-411 18 -107 53 -165 179 -148 321 9 69 68 163 129 205 64 44 107 89 124 129
11 27 18 97 24 262 10 273 22 344 96 535 56 144 99 224 176 326 171 228 341
370 583 488 106 53 228 91 384 121 116 23 365 21 505 -4z m-9575 -226 c216
-16 426 -95 655 -248 113 -75 111 -70 63 -166 -43 -88 -108 -261 -119 -320 -5
-28 -13 -54 -18 -59 -4 -4 -28 9 -52 29 -24 20 -69 53 -99 73 -257 168 -426
219 -693 208 -213 -8 -392 -67 -576 -188 -104 -69 -276 -248 -363 -379 -79
-118 -168 -301 -168 -345 0 -46 33 -29 90 45 153 200 271 310 455 427 112 70
144 86 272 127 149 48 231 59 342 46 173 -19 320 -72 475 -169 109 -69 244
-190 247 -223 1 -7 3 -123 3 -258 2 -273 10 -336 81 -695 48 -240 62 -345 75
-565 17 -281 70 -583 129 -736 29 -74 129 -273 193 -384 l55 -95 -31 -45 c-57
-83 -147 -163 -232 -207 -123 -65 -217 -88 -349 -87 -137 1 -222 21 -344 80
-76 37 -110 61 -171 123 -83 82 -117 128 -200 266 -81 135 -179 264 -246 322
-57 49 -185 131 -333 213 -178 99 -250 162 -333 291 -52 81 -78 141 -169 392
-90 251 -200 382 -509 610 -40 29 -46 39 -53 84 -10 60 2 106 93 363 164 463
322 733 579 991 134 134 256 226 421 317 124 68 376 145 528 161 108 12 159
12 302 1z m8154 -2549 c80 -97 109 -125 162 -157 59 -35 175 -73 244 -81 46
-4 58 -9 52 -19 -8 -15 -218 -164 -230 -164 -7 1 -39 44 -150 205 -69 99 -118
187 -132 235 -5 14 -11 33 -15 43 -13 32 3 17 69 -62z m-188 -76 c21 -38 66
-115 101 -169 34 -55 80 -133 100 -173 l38 -74 -46 -42 c-25 -23 -59 -49 -75
-57 -16 -8 -46 -28 -66 -44 -21 -16 -41 -26 -45 -23 -3 4 -14 103 -24 219 -10
117 -23 254 -29 305 -19 169 -16 172 46 58z m982 -262 c27 -49 63 -113 80
-143 16 -30 51 -91 76 -135 l46 -80 -34 -30 c-18 -16 -53 -41 -76 -55 -24 -14
-91 -60 -149 -104 -58 -43 -110 -80 -116 -82 -31 -12 -186 181 -289 358 l-27
47 53 31 c96 56 280 194 332 249 17 17 35 31 42 31 7 0 35 -39 62 -87z m194
18 c5 -14 153 -102 236 -141 39 -19 72 -37 71 -40 -1 -9 -99 -80 -123 -90 -19
-7 -28 -4 -44 13 -40 45 -159 224 -164 248 -3 13 -9 33 -13 44 -6 18 -5 18 13
-3 11 -12 22 -26 24 -31z m848 -31 c23 -56 -2 -130 -125 -360 -25 -46 -45 -89
-45 -95 0 -5 -9 -16 -20 -23 -17 -10 -29 -10 -65 3 -45 15 -209 14 -291 -1
-37 -7 -54 13 -54 65 0 26 9 37 73 81 82 57 183 132 212 158 26 23 288 202
296 202 4 0 12 -14 19 -30z m-1618 -383 c25 -39 87 -132 137 -205 50 -73 91
-137 91 -142 0 -13 -120 -103 -273 -207 l-121 -82 -73 77 c-85 91 -97 121
-116 302 l-14 122 51 34 c28 18 83 59 121 89 89 72 125 94 139 89 6 -2 32 -37
58 -77z m845 -147 c-7 -28 -229 -359 -245 -365 -27 -10 -132 75 -132 107 0 27
57 80 143 133 27 17 70 47 97 67 100 77 147 97 137 58z m499 -216 c102 -29
201 -135 246 -262 43 -122 7 -303 -107 -537 -89 -184 -215 -333 -338 -401 -45
-25 -62 -29 -132 -29 -95 0 -139 19 -202 88 -77 84 -103 161 -103 314 0 198
37 363 120 528 78 155 147 235 245 282 59 28 80 33 143 33 41 0 98 -7 128 -16z
m-1952 -146 c14 -130 25 -259 31 -333 23 -315 77 -916 91 -1007 5 -36 5 -36
-63 -74 -159 -89 -437 -194 -724 -272 -164 -45 -249 -59 -275 -44 -16 9 -16
10 3 20 23 13 197 208 260 292 148 198 268 473 308 705 21 124 19 291 -6 461
-11 79 -19 149 -17 155 2 6 46 26 98 44 52 18 133 49 180 69 47 19 90 36 97
36 7 0 14 -22 17 -52z m973 -35 c22 -27 61 -80 88 -120 l47 -72 -15 -63 c-55
-234 -55 -236 -120 -285 -66 -51 -165 -105 -178 -98 -4 3 -41 56 -82 118 -158
238 -177 271 -161 287 16 16 369 279 375 280 3 0 24 -21 46 -47z m-2703 -45
c24 -89 113 -219 189 -274 l58 -43 -33 -21 c-52 -32 -107 -43 -185 -37 -90 7
-163 39 -238 104 -55 47 -125 137 -125 160 0 7 23 24 50 38 28 14 75 42 106
61 56 36 130 72 150 73 6 1 18 -27 28 -61z m-3189 -163 c77 -28 142 -104 174
-201 29 -90 27 -135 -12 -225 -55 -126 -184 -272 -311 -353 -47 -30 -66 -36
-100 -34 l-41 3 -3 58 c-4 79 52 509 93 717 2 8 4 18 4 23 1 4 16 16 34 27 37
23 67 20 162 -15z m5280 -103 c22 -15 274 -387 288 -424 6 -18 5 -18 -206
-161 -32 -22 -60 -37 -63 -34 -3 2 -14 112 -24 243 -11 132 -24 255 -30 275
-23 82 -6 130 35 101z m-8556 -150 c181 -139 372 -243 561 -307 93 -32 259
-69 278 -62 15 5 11 -15 -14 -70 -87 -192 -129 -385 -121 -553 5 -104 49 -305
82 -377 8 -18 11 -33 7 -32 -33 3 -464 588 -574 779 -68 119 -173 341 -228
485 -34 88 -66 168 -71 178 -16 28 0 20 80 -41z m2148 -108 c136 -51 325 -110
490 -154 l81 -22 -1 -156 c-2 -187 10 -234 79 -311 64 -71 138 -104 229 -103
l70 1 44 -102 c108 -253 259 -444 453 -575 98 -66 152 -92 293 -141 131 -46
274 -115 345 -166 51 -37 168 -97 220 -114 68 -21 214 -31 296 -21 122 15 172
29 269 74 99 47 194 125 242 202 21 34 34 44 54 44 37 0 350 -60 370 -71 24
-13 14 -44 -67 -206 -77 -155 -206 -353 -308 -472 -39 -45 -92 -108 -117 -140
-50 -60 -177 -178 -299 -278 -91 -73 -241 -165 -313 -190 -199 -69 -931 74
-1477 289 -350 138 -833 399 -871 470 -13 24 -7 196 12 328 26 189 93 542 116
608 26 78 27 109 2 125 -27 17 -90 -2 -121 -35 -76 -81 -201 -417 -277 -742
-11 -49 -23 -91 -25 -93 -6 -6 -53 26 -116 78 -25 21 -90 75 -145 120 -250
206 -545 507 -545 557 0 15 131 248 195 347 18 28 66 102 107 165 118 182 227
311 437 518 108 105 199 192 203 192 4 0 38 -11 75 -26z m7112 -184 c16 -75
14 -232 -3 -256 -16 -22 -14 -23 -50 31 -14 22 -33 51 -43 65 -50 76 -63 97
-63 107 0 12 120 103 137 103 6 0 16 -23 22 -50z m-5585 -183 c115 -178 231
-323 381 -475 248 -253 496 -422 848 -577 59 -26 107 -51 107 -55 0 -15 -92
-72 -147 -91 -115 -40 -317 -35 -403 9 -171 89 -263 133 -310 147 -189 57
-255 82 -335 126 -113 63 -248 170 -318 255 -61 73 -144 217 -184 318 l-27 67
76 77 c85 86 238 268 238 283 0 23 19 1 74 -84z m5373 -97 c75 -112 127 -202
137 -236 5 -15 -2 -26 -31 -47 -57 -41 -236 -159 -249 -164 -13 -5 -254 355
-254 379 0 3 60 46 134 97 74 51 140 99 147 107 14 17 17 13 116 -136z m-369
-414 c39 -58 72 -108 72 -113 -1 -7 -102 -73 -113 -73 -8 0 -16 41 -27 153 -6
59 -13 114 -16 122 -16 41 18 4 84 -89z m205 -293 c13 -21 27 -47 31 -57 10
-29 -42 -151 -86 -201 -44 -50 -77 -61 -117 -41 -30 16 -41 57 -41 155 0 43 4
49 52 91 66 58 110 89 125 90 7 0 23 -17 36 -37z m-1858 -133 c24 -47 102
-262 146 -405 66 -214 88 -350 96 -575 3 -108 3 -208 0 -222 -6 -21 -23 -32
-99 -63 -305 -123 -680 -232 -1038 -304 -343 -68 -904 -110 -1096 -81 -46 6
-84 14 -84 16 0 2 89 93 198 201 189 189 319 337 410 468 134 191 189 277 229
354 25 47 70 134 100 192 l56 106 51 11 c28 6 94 16 146 22 122 15 364 65 460
96 91 29 269 118 346 173 32 23 59 41 60 41 2 0 10 -13 19 -30z m1518 -429
c83 -45 184 -71 279 -74 l67 -2 -22 -24 c-41 -44 -241 -213 -342 -288 -241
-180 -735 -496 -751 -481 -2 3 9 42 25 89 16 46 44 132 62 192 18 59 35 108
38 108 3 1 18 3 33 4 86 11 280 118 364 201 67 67 124 169 145 262 7 29 16 52
21 52 5 0 41 -17 81 -39z"/>
<path d="M8891 12624 c-23 -16 -23 -20 -17 -113 23 -344 19 -376 -41 -417 -38
-25 -103 -38 -135 -25 -68 27 -130 127 -147 241 -14 90 -56 213 -82 236 -16
14 -24 15 -44 6 l-25 -12 0 -208 c0 -250 8 -285 78 -363 97 -108 249 -140 399
-84 83 32 132 77 170 159 25 53 28 72 27 151 -1 90 -16 164 -70 342 -31 102
-60 124 -113 87z"/>
<path d="M10291 12239 c-61 -11 -132 -48 -156 -81 -25 -36 -19 -80 14 -112 29
-28 32 -29 108 -22 43 4 109 10 147 13 45 3 106 -1 177 -13 105 -17 109 -17
129 1 44 40 22 87 -76 161 -63 49 -227 74 -343 53z"/>
<path d="M7124 11696 c-95 -26 -206 -88 -257 -145 -66 -73 -98 -160 -77 -210
23 -56 79 -56 140 -1 79 71 185 122 337 164 106 29 127 47 120 103 -5 50 -30
74 -96 98 -56 19 -68 18 -167 -9z"/>
<path d="M10401 11414 c-156 -42 -277 -157 -346 -329 -23 -59 -28 -89 -33
-192 -5 -118 -4 -123 22 -167 31 -52 51 -66 99 -66 43 0 53 11 116 142 54 111
88 151 161 188 136 69 280 32 413 -106 45 -47 79 -74 92 -74 58 0 96 111 77
225 -10 63 -66 190 -101 229 -36 41 -137 110 -200 137 -56 24 -79 28 -156 28
-49 0 -114 -7 -144 -15z"/>
<path d="M7218 10867 c-217 -75 -372 -293 -370 -520 1 -109 20 -154 75 -181
34 -16 42 -17 74 -4 30 11 46 29 86 98 94 158 171 210 314 213 116 2 217 -60
308 -187 44 -61 86 -87 127 -79 53 10 63 34 63 152 0 91 -4 114 -25 161 -67
151 -165 259 -298 327 -68 34 -79 37 -180 40 -91 2 -117 0 -174 -20z"/>
<path d="M9290 9880 c-143 -26 -274 -96 -392 -208 -60 -57 -78 -81 -78 -102 0
-31 27 -60 57 -60 20 0 34 9 145 94 75 58 125 81 227 103 101 23 310 22 404
-1 38 -9 79 -16 91 -16 45 0 59 88 21 126 -8 8 -45 26 -82 41 -60 23 -85 26
-208 29 -77 2 -160 -1 -185 -6z"/>
<path d="M9515 9259 c-152 -19 -305 -86 -370 -161 -38 -45 -44 -77 -19 -102
26 -27 64 -18 184 40 140 68 257 94 420 94 97 0 112 2 130 20 25 25 25 33 -2
65 -39 44 -187 63 -343 44z"/>
<path d="M14858 12598 c-35 -26 -49 -86 -55 -228 l-6 -138 26 -26 c32 -32 78
-34 106 -5 21 23 27 57 41 234 8 108 7 122 -9 145 -21 29 -76 38 -103 18z"/>
<path d="M13983 12528 c-29 -18 -91 -57 -138 -87 -48 -29 -91 -64 -97 -76 -21
-47 12 -105 60 -105 32 0 239 97 300 141 37 27 42 35 42 70 0 29 -7 47 -25 64
-34 35 -79 33 -142 -7z"/>
<path d="M14306 11948 c-36 -33 -42 -68 -16 -101 28 -36 195 -160 252 -188 40
-19 50 -21 76 -10 31 13 52 47 52 86 0 35 -42 78 -139 144 -149 100 -179 109
-225 69z"/>
<path d="M13383 11894 c-37 -37 -27 -82 49 -233 47 -94 71 -131 97 -148 30
-21 35 -21 61 -8 51 26 53 74 9 171 -108 238 -112 244 -160 244 -19 0 -40 -10
-56 -26z"/>
<path d="M15283 11899 c-26 -9 -53 -47 -53 -73 0 -10 9 -33 20 -50 21 -35 152
-149 210 -185 47 -28 100 -28 128 2 45 47 20 101 -81 174 -29 20 -76 58 -105
84 -56 49 -85 61 -119 48z"/>
<path d="M14174 11230 c-21 -23 -62 -57 -91 -76 -28 -19 -70 -55 -93 -80 -36
-40 -41 -50 -36 -77 7 -36 47 -77 76 -77 11 0 32 5 47 12 42 19 198 153 222
192 30 48 28 99 -5 125 -41 32 -75 27 -120 -19z"/>
<path d="M15200 11203 c-8 -3 -25 -14 -38 -24 -13 -10 -59 -30 -102 -44 -123
-41 -186 -98 -166 -150 7 -20 66 -45 104 -45 57 0 214 70 274 123 53 45 58 78
20 117 -29 29 -58 36 -92 23z"/>
</g>
</svg>
